<?xml version="1.0" encoding="iso-8859-1"?>
<!-- Generator: Adobe Illustrator 19.0.0, SVG Export Plug-In . SVG Version: 6.00 Build 0)  -->
<svg version="1.1" id="Layer_1" xmlns="http://www.w3.org/2000/svg" xmlns:xlink="http://www.w3.org/1999/xlink" x="0px" y="0px"
	 viewBox="0 0 1000 1000" style="enable-background:new 0 0 496 496;" xml:space="preserve">
<path style="fill:#6D6D6D;" d="M484.8,0H287.2c-6.4,0-12,0-18.4,9.6L258.4,24H24.8C11.2,24,0,38.4,0,52v314.4
	C0,380,11.2,392,24.8,392h446.4c13.6,0,24.8-12,24.8-26.4V122.4V52V11.2C496,4.8,491.2,0,484.8,0z"/>
<path style="fill:#565656;" d="M485.6,324c6.4-4,10.4-12,10.4-20V122.4V52V11.2C496,4.8,491.2,0,484.8,0H287.2c-6.4,0-12,0-18.4,9.6
	L258.4,24H24.8C12,24,1.6,35.2,0,47.2L485.6,324z"/>
<path style="fill:#262523;" d="M16,56l469.6,269.6c6.4-4,10.4-13.6,10.4-21.6V122.4V77.6L465.6,56H16z"/>
<rect x="40" y="56" style="fill:#FFFFFF;" width="416" height="304"/>
<rect x="256" y="56" style="fill:#EFEFEF;" width="200" height="304"/>
<path style="fill:#0a192f;" d="M496,376c0,13.6-11.2,24-24.8,24H24.8C11.2,400,0,390.4,0,376l8-249.6C8,112.8,19.2,104,32.8,104H464
	c13.6,0,24.8,8.8,24.8,22.4L496,376z"/>
<path style="fill:#172a45;" d="M492.8,388.8L10.4,116c-0.8,2.4-2.4,5.6-2.4,8.8L0,376c0,13.6,11.2,24,24.8,24h446.4
	C480,400,488,396,492.8,388.8z"/>
<path style="opacity:0.3;fill:#9AA5A4;enable-background:new    ;" d="M496,388.8C496,448,448,496,388.8,496s-107.2-48-107.2-107.2
	s48-107.2,107.2-107.2C448,281.6,496,329.6,496,388.8z"/>
<path style="fill:red;" d="M482.4,388.8c0,59.2-48,107.2-107.2,107.2S268,448,268,388.8s48-107.2,107.2-107.2
	C434.4,281.6,482.4,329.6,482.4,388.8z"/>
<path style="fill:#262523;" d="M375.2,281.6c59.2,0,107.2,48,107.2,107.2S434.4,496,375.2,496"/>
<path style="fill:#3A3A3A;" d="M299.2,312.8c41.6-41.6,109.6-41.6,152,0c41.6,41.6,41.6,109.6,0,152"/>
<path style="fill:#262523;" d="M438.4,373.6L396,331.2c-4.8-4.8-12-4.8-16.8,0l-42.4,42.4c-4.8,4.8-4.8,12,0,16.8s12,4.8,16,0
	L376,368v84.8c0,6.4,5.6,12,12,12s12-5.6,12-12V368l22.4,22.4c2.4,2.4,4.8,3.2,8,3.2s5.6-0.8,8-3.2
	C443.2,385.6,443.2,378.4,438.4,373.6z"/>
<path style="fill:cyan;" d="M430.4,358.4L388,316c-4-4-12-4-16,0l-42.4,42.4c-4.8,4.8-4.8,12,0,16.8s12,4.8,16,0l22.4-22.4v84.8
	c0,6.4,5.6,12,12,12s12-5.6,12-12v-84.8l22.4,22.4c2.4,2.4,4.8,3.2,8,3.2s5.6-0.8,8-3.2C435.2,370.4,435.2,363.2,430.4,358.4z"/>
<g>
</g>
<g>
</g>
<g>
</g>
<g>
</g>
<g>
</g>
<g>
</g>
<g>
</g>
<g>
</g>
<g>
</g>
<g>
</g>
<g>
</g>
<g>
</g>
<g>
</g>
<g>
</g>
<g>
</g>
</svg>
